<svg width="233" height="233" viewBox="0 0 233 233" fill="none" xmlns="http://www.w3.org/2000/svg">
<g filter="url(#filter0_d_85_2)">
<path d="M229 112.5C229 174.632 178.632 225 116.5 225C54.368 225 4 174.632 4 112.5C4 50.368 54.368 0 116.5 0C178.632 0 229 50.368 229 112.5Z" fill="white"/>
</g>
<path d="M51.3746 103.48C49.0706 103.48 47.0973 102.979 45.4546 101.976C43.812 100.963 42.548 99.5547 41.6626 97.752C40.788 95.9493 40.3506 93.8587 40.3506 91.48C40.3506 89.1013 40.788 87.0107 41.6626 85.208C42.548 83.4053 43.812 82.0027 45.4546 81C47.0973 79.9867 49.0706 79.48 51.3746 79.48C54.0306 79.48 56.244 80.1467 58.0146 81.48C59.7853 82.8027 61.028 84.5893 61.7426 86.84L57.8546 87.912C57.4066 86.408 56.644 85.2347 55.5666 84.392C54.4893 83.5387 53.092 83.112 51.3746 83.112C49.828 83.112 48.5373 83.4587 47.5026 84.152C46.4786 84.8453 45.7053 85.8213 45.1826 87.08C44.6706 88.328 44.4093 89.7947 44.3986 91.48C44.3986 93.1653 44.6546 94.6373 45.1666 95.896C45.6893 97.144 46.468 98.1147 47.5026 98.808C48.5373 99.5013 49.828 99.848 51.3746 99.848C53.092 99.848 54.4893 99.4213 55.5666 98.568C56.644 97.7147 57.4066 96.5413 57.8546 95.048L61.7426 96.12C61.028 98.3707 59.7853 100.163 58.0146 101.496C56.244 102.819 54.0306 103.48 51.3746 103.48ZM74.9996 103.48C72.6956 103.48 70.7223 102.979 69.0796 101.976C67.437 100.963 66.173 99.5547 65.2876 97.752C64.413 95.9493 63.9756 93.8587 63.9756 91.48C63.9756 89.1013 64.413 87.0107 65.2876 85.208C66.173 83.4053 67.437 82.0027 69.0796 81C70.7223 79.9867 72.6956 79.48 74.9996 79.48C77.3036 79.48 79.277 79.9867 80.9196 81C82.573 82.0027 83.837 83.4053 84.7116 85.208C85.597 87.0107 86.0396 89.1013 86.0396 91.48C86.0396 93.8587 85.597 95.9493 84.7116 97.752C83.837 99.5547 82.573 100.963 80.9196 101.976C79.277 102.979 77.3036 103.48 74.9996 103.48ZM74.9996 99.848C76.5463 99.8587 77.8316 99.5173 78.8556 98.824C79.8903 98.1307 80.6636 97.1547 81.1756 95.896C81.6983 94.6373 81.9596 93.1653 81.9596 91.48C81.9596 89.7947 81.6983 88.3333 81.1756 87.096C80.6636 85.848 79.8903 84.8773 78.8556 84.184C77.8316 83.4907 76.5463 83.1333 74.9996 83.112C73.453 83.1013 72.1676 83.4427 71.1436 84.136C70.1196 84.8293 69.3463 85.8053 68.8236 87.064C68.3116 88.3227 68.0556 89.7947 68.0556 91.48C68.0556 93.1653 68.3116 94.632 68.8236 95.88C69.3356 97.1173 70.1036 98.0827 71.1276 98.776C72.1623 99.4693 73.453 99.8267 74.9996 99.848ZM89.2244 103V79.96H93.1284L103.816 96.2V79.96H107.72V103H103.816L93.1284 86.76V103H89.2244ZM117.729 103V83.576H110.273V79.96H129.041V83.576H121.585V103H117.729ZM129.374 103L136.638 79.96H142.286L149.55 103H145.582L138.99 82.328H139.854L133.342 103H129.374ZM133.422 98.008V94.408H145.518V98.008H133.422ZM161.562 103.48C159.258 103.48 157.285 102.979 155.642 101.976C153.999 100.963 152.735 99.5547 151.85 97.752C150.975 95.9493 150.538 93.8587 150.538 91.48C150.538 89.1013 150.975 87.0107 151.85 85.208C152.735 83.4053 153.999 82.0027 155.642 81C157.285 79.9867 159.258 79.48 161.562 79.48C164.218 79.48 166.431 80.1467 168.202 81.48C169.973 82.8027 171.215 84.5893 171.93 86.84L168.042 87.912C167.594 86.408 166.831 85.2347 165.754 84.392C164.677 83.5387 163.279 83.112 161.562 83.112C160.015 83.112 158.725 83.4587 157.69 84.152C156.666 84.8453 155.893 85.8213 155.37 87.08C154.858 88.328 154.597 89.7947 154.586 91.48C154.586 93.1653 154.842 94.6373 155.354 95.896C155.877 97.144 156.655 98.1147 157.69 98.808C158.725 99.5013 160.015 99.848 161.562 99.848C163.279 99.848 164.677 99.4213 165.754 98.568C166.831 97.7147 167.594 96.5413 168.042 95.048L171.93 96.12C171.215 98.3707 169.973 100.163 168.202 101.496C166.431 102.819 164.218 103.48 161.562 103.48ZM180.979 103V83.576H173.523V79.96H192.291V83.576H184.835V103H180.979ZM95.1931 147V123.96H98.6651L106.633 140.28L114.601 123.96H118.073V147H114.473V132.232L107.401 147H105.865L98.8091 132.232V147H95.1931ZM122.568 147V123.96H137.448V127.576H126.424V133.256H135.528V136.872H126.424V143.384H137.448V147H122.568Z" fill="black"/>
<defs>
<filter id="filter0_d_85_2" x="0" y="0" width="233" height="233" filterUnits="userSpaceOnUse" color-interpolation-filters="sRGB">
<feFlood flood-opacity="0" result="BackgroundImageFix"/>
<feColorMatrix in="SourceAlpha" type="matrix" values="0 0 0 0 0 0 0 0 0 0 0 0 0 0 0 0 0 0 127 0" result="hardAlpha"/>
<feOffset dy="4"/>
<feGaussianBlur stdDeviation="2"/>
<feComposite in2="hardAlpha" operator="out"/>
<feColorMatrix type="matrix" values="0 0 0 0 0 0 0 0 0 0 0 0 0 0 0 0 0 0 0.25 0"/>
<feBlend mode="normal" in2="BackgroundImageFix" result="effect1_dropShadow_85_2"/>
<feBlend mode="normal" in="SourceGraphic" in2="effect1_dropShadow_85_2" result="shape"/>
</filter>
</defs>
</svg>
